<svg id="Isolation_Mode" xmlns="http://www.w3.org/2000/svg" viewBox="0 0 115 38.9"><style>.st0{fill:#fff}.st1{fill:url(#SVGID_1_)}</style><path class="st0" d="M33.2 3.6v32.8c0 .9-.2 1.4-.6 1.7-.2.2-.5.2-.9.2-.3 0-.6 0-.9-.1-.3-.1-.5-.2-.6-.4-.1-.2-.1-.4-.1-.6v-1.5-1.5-10.5V.2s0-.2.3-.2c.2 0 .3.2.3.2l2.5 3.4zM49.9 38.9c-1.2 0-2.3-.2-3.5-.5-1.1-.4-2.1-.8-3.1-1.4-1.7-1.1-3.1-2.5-4.2-4.4-1-1.8-1.5-3.7-1.5-5.8v-.2c0-2.2.6-4.2 1.7-6.1 1.1-1.9 2.5-3.3 4.2-4.4 1-.6 2-1.1 3.1-1.4 1.1-.3 2.2-.4 3.3-.4h.1c1.2 0 2.4.2 3.5.5s2.2.8 3.1 1.4c1.7 1.1 3.1 2.6 4.1 4.5 1 1.8 1.5 3.8 1.5 5.9v.3c0 2.2-.6 4.2-1.7 6.1-1.1 1.8-2.5 3.2-4.2 4.3-1 .6-2 1-3.1 1.3-1.1.3-2.1.4-3.3.4.1-.1.1-.1 0-.1zm-9.2-12.2c0 2.6.9 4.8 2.8 6.6 1.8 1.8 4 2.8 6.6 2.8 2.5 0 4.7-.9 6.6-2.8 1.8-1.8 2.8-4 2.8-6.5v-.1c0-2.6-.9-4.8-2.8-6.7-1.8-1.8-4-2.8-6.6-2.8-2.6 0-4.8.9-6.6 2.7-1.9 1.9-2.8 4.2-2.8 6.8zM89.7 37.2c0 .5-.1.8-.4.9-.3.1-.6.1-1 .1s-.7 0-1-.1c-.3-.1-.5-.4-.5-1v-1.3-1.5c-1.5 1.5-3.2 2.7-4.9 3.4-1.4.6-2.9.9-4.5.9h-1.1c-2.1-.2-3.9-.7-5.5-1.7s-2.9-2.3-4-4c-1.3-2.1-2-4.3-2-6.6 0-.7 0-1.3.1-2 .5-3.1 1.9-5.7 4.3-7.8 1.3-1.2 3-2 5-2.5 1-.3 2-.4 3.1-.4s2.1.1 3.2.4c1.2.3 2.3.8 3.5 1.5 1.2.7 2.3 1.6 3.3 2.7.3-.5.5-1 .8-1.5l.9-1.5c.1-.1.1-.3.2-.4.1-.2.2-.2.4-.1s.2.2.2.3v11.3c0 3.6-.1 7.3-.1 10.9zm-3.1-10.9v-.2c0-2.5-.9-4.6-2.7-6.5-1.9-1.9-4.1-2.9-6.7-2.9h-.1c-2.6 0-4.8.9-6.6 2.7-1.8 1.9-2.8 4.1-2.8 6.7v.1c0 2.6.9 4.8 2.7 6.6 1.8 1.9 4.1 2.8 6.7 2.8 2.6 0 4.8-.9 6.6-2.8 1.9-1.7 2.9-3.9 2.9-6.5zM115 36.8c0 .6-.1.9-.4 1.1-.2.2-.6.3-1.1.3-.5 0-.9-.1-1.1-.3-.2-.2-.3-.5-.3-1.1v-6.3-6.2c0-1.9-.4-3.5-1.3-4.7-.9-1.2-2.1-2.1-3.6-2.5-2.2-.7-4.3-.3-6.1 1-1.8 1.3-2.7 3.1-2.8 5.5v13c0 .5-.1.9-.2 1.2-.2.3-.6.4-1.2.4s-1-.1-1.2-.3c-.2-.2-.3-.6-.3-1.2v-2.5-7.1-9.5-.1-1-1-.4c0-.2.1-.3.3-.3.1 0 .2.1.3.2.1.1.1.2.2.3.2.4.4.7.6 1.1.2.4.5.7.7 1.1.1-.1.3-.2.4-.3l.4-.4c.8-.8 1.7-1.4 2.8-1.9 1-.5 2-.8 3.1-.9h1.1c1.5 0 3 .4 4.5 1.1 1.8.9 3.2 2.4 4.2 4.3.3.6.6 1.2.7 1.9.2.7.3 1.4.3 2.1.1 1.8.1 3.6.1 5.3v1.5c-.1 2.1-.1 4.4-.1 6.6zM25 25.8c0-.5-.2-1.5-.5-2.8-.7-2.9-2.2-5.1-4.4-6.8-2.2-1.6-4.7-2.5-7.3-2.5h-.2c-1.3 0-2.7.2-4 .6-1.4.5-2.7 1.2-4 2.2-1.6 1.3-2.8 3-3.6 4.9-.6 1.6-1 3.2-1 4.8h24.7c.2.1.3-.1.3-.4zm-4.6-2.4H4.5c-.4 0-.8-.4-.6-.8.4-1.3 1.3-2.6 2.7-3.7 1.7-1.3 3.5-2 5.4-2.1h.3c2.1 0 3.9.6 5.6 1.8 1.5 1.1 2.5 2.4 3.1 3.9.2.5-.1.9-.6.9z"/><linearGradient id="SVGID_1_" gradientUnits="userSpaceOnUse" x1=".049" y1="33.123" x2="21.004" y2="33.123"><stop offset="0" stop-color="#efeb3e"/><stop offset="1" stop-color="#00a896"/></linearGradient><path class="st1" d="M3.2 27.5c.2 1.7.8 3.2 1.7 4.5 1 1.2 2.2 2.2 3.8 2.9 1.5.7 3.1.9 4.6.8 1.5-.2 3-.7 4.4-1.7.3-.2.6-.4.9-.7.3-.2.7-.1 1.2.3.7.7 1.1 1.2 1.1 1.4 0 .3-.4.7-1.3 1.3-2.2 1.6-4.5 2.4-7 2.4-.7 0-1.4-.1-2.2-.2-3.4-.6-6.1-2.3-8.3-5.1-.7-.9-1.2-1.8-1.5-2.8-.4-1-.6-2.1-.7-3.2.1.1 3.3 0 3.3.1z"/></svg>